# xmcd
#
# Track frame offsets: 
#        150
#        15620
#        31176
#        46852
#        63359
#        77436
#        91168
#        98808
#        113836
#        124280
#        141680
#        159775
#
# Disc length: 2482 seconds
#
# Revision: 0
# Processed by: cddbd v1.5.2PL0 Copyright (c) Steve Scherf et al.
# Submitted via: ExactAudioCopy v0.99pb5
#
DISCID=8e09b00c
DTITLE=Haunted Hearts - Thank You, Goodnight
DYEAR=2009
DGENRE=Alt-Country
TTITLE0=Thank You, Goodnight
TTITLE1=Haunted Hearts
TTITLE2=I Thought My Name Was Dark Clouds
TTITLE3=Dynamite
TTITLE4=There is no Understanding Between Tree and Man
TTITLE5=Disappear When You Need To
TTITLE6=GST Cheques Are Here!
TTITLE7=Acid
TTITLE8=I Only Mean Well
TTITLE9=Don't Cross Your Heart
TTITLE10=Something For You
TTITLE11=I'll See You
EXTD=
EXTT0=
EXTT1=
EXTT2=
EXTT3=
EXTT4=
EXTT5=
EXTT6=
EXTT7=
EXTT8=
EXTT9=
EXTT10=
EXTT11=
PLAYORDER=
